<svg width="512" height="618" viewBox="0 0 512 618" fill="none" xmlns="http://www.w3.org/2000/svg">
  <defs>
    <linearGradient id="shield-left" x1="34" y1="42" x2="256" y2="580" gradientUnits="userSpaceOnUse">
      <stop stop-color="#1E5B99"/>
      <stop offset="1" stop-color="#103F72"/>
    </linearGradient>
    <linearGradient id="shield-right" x1="256" y1="18" x2="478" y2="565" gradientUnits="userSpaceOnUse">
      <stop stop-color="#173E6B"/>
      <stop offset="1" stop-color="#12375F"/>
    </linearGradient>
    <linearGradient id="accent" x1="192" y1="113" x2="350" y2="477" gradientUnits="userSpaceOnUse">
      <stop stop-color="#FFA42E"/>
      <stop offset="1" stop-color="#FF8A00"/>
    </linearGradient>
    <clipPath id="shield-shape">
      <path d="M256 10L510 92V324C510 440 422 549 256 608C90 549 2 440 2 324V92L256 10Z"/>
    </clipPath>
    <clipPath id="left-half">
      <rect width="256" height="618" fill="white"/>
    </clipPath>
    <clipPath id="right-half">
      <rect x="256" width="256" height="618" fill="white"/>
    </clipPath>
  </defs>

  <g clip-path="url(#shield-shape)">
    <rect width="512" height="618" fill="#F8FAFC"/>
    <g clip-path="url(#left-half)">
      <path d="M256 10L510 92V324C510 440 422 549 256 608C90 549 2 440 2 324V92L256 10Z" fill="url(#shield-left)"/>
    </g>
    <g clip-path="url(#right-half)">
      <path d="M256 10L510 92V324C510 440 422 549 256 608C90 549 2 440 2 324V92L256 10Z" fill="url(#shield-right)"/>
    </g>
    <rect x="254" y="10" width="4" height="598" fill="#0E2F53" opacity="0.45"/>
  </g>

  <path d="M256 10L510 92V324C510 440 422 549 256 608C90 549 2 440 2 324V92L256 10Z" stroke="#15446F" stroke-width="4"/>

  <circle cx="256" cy="223" r="110" stroke="url(#accent)" stroke-width="28"/>
  <path d="M222 160C197 170 178 193 173 223" stroke="url(#accent)" stroke-width="18" stroke-linecap="round"/>
  <path d="M256 333V358" stroke="url(#accent)" stroke-width="28" stroke-linecap="round"/>
  <rect x="228" y="352" width="56" height="156" rx="28" fill="url(#accent)"/>
</svg>
